<?xml version="1.0" encoding="UTF-8" standalone="no"?>
<svg
   xmlns:dc="http://purl.org/dc/elements/1.1/"
   xmlns:cc="http://creativecommons.org/ns#"
   xmlns:rdf="http://www.w3.org/1999/02/22-rdf-syntax-ns#"
   xmlns:svg="http://www.w3.org/2000/svg"
   xmlns="http://www.w3.org/2000/svg"
   xmlns:sodipodi="http://sodipodi.sourceforge.net/DTD/sodipodi-0.dtd"
   xmlns:inkscape="http://www.inkscape.org/namespaces/inkscape"
   width="131.10228mm"
   height="87.841026mm"
   viewBox="0 0 131.10228 87.841026"
   version="1.1"
   id="svg2710"
   inkscape:version="1.0.1 (0767f8302a, 2020-10-17)"
   sodipodi:docname="car.svg">
  <defs
     id="defs2704" />
  <sodipodi:namedview
     id="base"
     pagecolor="#ffffff"
     bordercolor="#666666"
     borderopacity="1.0"
     inkscape:pageopacity="0.0"
     inkscape:pageshadow="2"
     inkscape:zoom="0.35"
     inkscape:cx="296.57366"
     inkscape:cy="361.69813"
     inkscape:document-units="mm"
     inkscape:current-layer="layer1"
     inkscape:document-rotation="0"
     showgrid="false"
     fit-margin-top="0"
     fit-margin-left="0"
     fit-margin-right="0"
     fit-margin-bottom="0"
     inkscape:window-width="1854"
     inkscape:window-height="1015"
     inkscape:window-x="66"
     inkscape:window-y="28"
     inkscape:window-maximized="1" />
  <metadata
     id="metadata2707">
    <rdf:RDF>
      <cc:Work
         rdf:about="">
        <dc:format>image/svg+xml</dc:format>
        <dc:type
           rdf:resource="http://purl.org/dc/dcmitype/StillImage" />
        <dc:title></dc:title>
      </cc:Work>
    </rdf:RDF>
  </metadata>
  <g
     inkscape:label="Layer 1"
     inkscape:groupmode="layer"
     id="layer1"
     transform="translate(-27.364884,-52.46737)">
    <g
       id="g1340"
       transform="matrix(0.08589465,0,0,-0.08589465,-227.67594,344.80294)">
      <path
         d="m 4453.53,2730.62 c -8.5,0 -15.89,5.38 -19.12,19.49 -5.1,22.3 -26.38,47.78 -11.41,65.59 5.8,6.91 14.37,9.77 23.51,9.77 14.43,0 30.28,-7.13 38.91,-16.72 14.09,-15.64 13.39,-42.77 -1.59,-60.58 -8.18,-9.74 -20.05,-17.55 -30.3,-17.55"
         style="fill:#d1f0fc;fill-opacity:1;fill-rule:nonzero;stroke:none"
         id="path910" />
      <path
         d="m 3753.73,3300.19 c -4.15,0 -8.85,0.71 -14.14,2.27 -29.93,8.79 -74.4,0.46 -85.62,30.14 -11.2,29.68 21.87,63.27 49.87,69.6 3.65,0.83 7.35,1.22 11.08,1.22 24.85,0 50.16,-17.67 59.91,-43.48 9.78,-25.92 7.45,-59.75 -21.1,-59.75"
         style="fill:#d1f0fc;fill-opacity:1;fill-rule:nonzero;stroke:none"
         id="path912" />
      <path
         d="m 3024.67,2651.05 c -17.21,0 -38.11,14.13 -47.69,29.37 -12.9,20.53 -9.33,49.6 7.96,64.91 7.79,6.89 18.02,11.72 27.3,11.72 11.32,0 21.21,-7.21 23.46,-26.66 2.94,-25.38 22.22,-58.38 4.93,-73.69 -4.46,-3.95 -9.99,-5.65 -15.96,-5.65"
         style="fill:#d1f0fc;fill-opacity:1;fill-rule:nonzero;stroke:none"
         id="path914" />
      <path
         d="m 4400.4,2380.76 h -235.28 c 27.5,46.49 46.96,74.92 49.03,166.38 0.6,26.55 -6.04,55.51 -16.06,84.23 h 10.31 v 189.46 c 0,27.04 -21.93,48.96 -48.97,48.96 h 40.88 l -107.99,236.9 c -17.03,37.37 -48.45,60.39 -82.47,60.39 h -239.3 c 47.27,8.31 93.99,26.5 140.74,39.14 44.31,11.98 90.61,18.89 136.54,18.89 54.4,0 108.29,-9.68 157.81,-32.08 103.53,-46.85 177.14,-152.6 168.54,-269.07 -3.9,-52.78 -23.83,-104.86 -16.78,-157.29 7.16,-53.17 38.17,-97.66 54.57,-147.74 22.4,-68.35 24.45,-168.81 -11.57,-238.17 m -1133.29,0 h -155.57 c -11.11,22.68 -19.3,46.96 -24.24,71.96 -14.08,71.34 8.49,132.19 14.13,202.14 5.32,66.23 -17.76,121.92 -30.57,185 -11.4,56.14 -7.6,119.71 6.71,174.89 19.53,75.32 64.52,145.07 129.33,187.59 51.65,33.88 112.12,48.4 173.78,48.4 58.93,0 118.95,-13.25 173.46,-35.52 41.6,-16.99 82.03,-38.99 125.71,-48.14 h -182.17 c -34.01,0 -65.43,-23.02 -82.47,-60.39 l -35.43,-77.74 c -42.12,-11.05 -81.61,-32.09 -113.19,-65.21 -41.58,-43.59 -65.58,-104.59 -70.57,-165.49 -3.66,-44.6 1.27,-93.84 16.26,-134.77 16.83,-46 60.36,-86.69 44.33,-136.11 -20.05,-61.84 -6.63,-99.51 10.5,-146.61 m 874.77,371.63 c -9.73,18.65 -17.58,34.07 -21.07,44.57 12.74,-8.84 21.07,-23.57 21.07,-40.25 v -4.32"
         style="fill:#dff4fd;fill-opacity:1;fill-rule:nonzero;stroke:none"
         id="path916" />
      <path
         d="m 4165.12,2380.76 h -898.01 c -17.13,47.1 -30.55,84.77 -10.5,146.61 16.03,49.42 -27.5,90.11 -44.33,136.11 -14.99,40.93 -19.92,90.17 -16.26,134.77 4.99,60.9 28.99,121.9 70.57,165.49 31.58,33.12 71.07,54.16 113.19,65.21 l -72.55,-159.16 h 38.78 c -27.04,0 -48.96,-21.92 -48.96,-48.96 v -189.46 h 68.59 v 117.48 c 0,31.38 25.45,56.82 56.83,56.82 h 670.46 c 10.36,0 19.97,-3.22 27.88,-8.71 3.49,-10.5 11.34,-25.92 21.07,-44.57 v -121.02 h 56.21 c 10.02,-28.72 16.66,-57.68 16.06,-84.23 -2.07,-91.46 -21.53,-119.89 -49.03,-166.38"
         style="fill:#caeefc;fill-opacity:1;fill-rule:nonzero;stroke:none"
         id="path918" />
      <path
         d="m 3402.85,2382.43 h -74.63 c -24.16,0 -43.75,19.59 -43.75,43.75 v 136.93 c 0,24.17 19.59,43.76 43.75,43.76 h 74.63 c 24.17,0 43.76,-19.59 43.76,-43.76 v -136.93 c 0,-24.16 -19.59,-43.75 -43.76,-43.75"
         style="fill:#292a2c;fill-opacity:1;fill-rule:nonzero;stroke:none"
         id="path920" />
      <path
         d="m 4179.32,2382.43 h -74.64 c -24.16,0 -43.75,19.59 -43.75,43.75 v 136.93 c 0,24.17 19.59,43.76 43.75,43.76 h 74.64 c 24.16,0 43.75,-19.59 43.75,-43.76 v -136.93 c 0,-24.16 -19.59,-43.75 -43.75,-43.75"
         style="fill:#292a2c;fill-opacity:1;fill-rule:nonzero;stroke:none"
         id="path922" />
      <path
         d="M 4281.41,2631.37 H 3226.12 c -14.87,0 -26.93,-12.06 -26.93,-26.94 v -17.79 c 0,-27.05 21.91,-48.96 48.95,-48.96 h 1010.17 c 27.64,0 50.04,22.4 50.04,50.03 v 16.72 c 0,14.88 -12.06,26.94 -26.94,26.94"
         style="fill:#6f666a;fill-opacity:1;fill-rule:nonzero;stroke:none"
         id="path924" />
      <path
         d="m 4223.1,2631.37 h -934.86 c -14.88,0 -26.94,-12.06 -26.94,-26.94 v -17.79 c 0,-27.05 21.92,-48.96 48.96,-48.96 H 4200 c 27.64,0 50.04,22.4 50.04,50.03 v 16.72 c 0,14.88 -12.06,26.94 -26.94,26.94"
         style="fill:#766f72;fill-opacity:1;fill-rule:nonzero;stroke:none"
         id="path926" />
      <path
         d="m 3512.87,2516.09 h 481.79 c 7.08,0 12.81,5.74 12.81,12.81 v 76.56 c 0,7.07 -5.73,12.81 -12.81,12.81 h -481.79 c -7.07,0 -12.8,-5.74 -12.8,-12.81 v -76.56 c 0,-7.07 5.73,-12.81 12.8,-12.81"
         style="fill:#262628;fill-opacity:1;fill-rule:nonzero;stroke:none"
         id="path928" />
      <path
         d="m 3700.58,2531.12 h 103.25 c 8.83,0 15.97,7.15 15.97,15.97 v 46.19 c 0,8.82 -7.14,15.97 -15.97,15.97 h -103.25 c -8.83,0 -15.98,-7.15 -15.98,-15.97 v -46.19 c 0,-8.82 7.15,-15.97 15.98,-15.97"
         style="fill:#ffffff;fill-opacity:1;fill-rule:nonzero;stroke:none"
         id="path930" />
      <path
         d="m 3339.4,2888.31 -44.24,57.63 c -0.3,10.66 -8.98,19.22 -19.71,19.22 h -72.49 c -10.92,0 -19.76,-8.85 -19.76,-19.76 v -24.06 c 0,-10.92 8.84,-19.76 19.76,-19.76 h 72.49 c 2.32,0 4.52,0.47 6.59,1.21 l 24.15,-37.82 33.21,23.34"
         style="fill:#262628;fill-opacity:1;fill-rule:nonzero;stroke:none"
         id="path932" />
      <path
         d="m 4304.58,2965.16 h -72.5 c -10.72,0 -19.4,-8.56 -19.7,-19.22 l -44.25,-57.63 33.22,-23.34 24.14,37.82 c 2.07,-0.74 4.27,-1.21 6.59,-1.21 h 72.5 c 10.91,0 19.76,8.84 19.76,19.76 v 24.06 c 0,10.91 -8.85,19.76 -19.76,19.76"
         style="fill:#262628;fill-opacity:1;fill-rule:nonzero;stroke:none"
         id="path934" />
      <path
         d="m 4159.43,2869.79 h -813.42 c -27.04,0 -48.96,-21.92 -48.96,-48.96 v -189.46 h 68.59 v 117.48 c 0,31.38 25.45,56.82 56.83,56.82 h 670.46 c 27.03,0 48.95,-21.92 48.95,-48.96 v -125.34 h 66.52 v 189.46 c 0,27.04 -21.93,48.96 -48.97,48.96"
         style="fill:#f7942a;fill-opacity:1;fill-rule:nonzero;stroke:none"
         id="path936" />
      <path
         d="m 4260.93,2861.43 c -7.81,5.28 -17.24,8.36 -27.38,8.36 h -74.12 c 27.04,0 48.97,-21.92 48.97,-48.96 v -189.46 h 74.12 v 189.46 c 0,16.9 -8.56,31.8 -21.59,40.6"
         style="fill:#f68823;fill-opacity:1;fill-rule:nonzero;stroke:none"
         id="path938" />
      <path
         d="m 3346.01,2869.79 h -74.12 c -27.04,0 -48.96,-21.92 -48.96,-48.96 v -189.46 h 2.09 72.03 v 189.46 c 0,27.04 21.91,48.96 48.96,48.96"
         style="fill:#f68823;fill-opacity:1;fill-rule:nonzero;stroke:none"
         id="path940" />
      <path
         d="m 4092.93,2805.67 h -670.46 c -31.38,0 -56.83,-25.44 -56.83,-56.82 v -117.48 -0.71 h 166.45 v 43.14 c 0,31.38 25.44,56.82 56.82,56.82 h 337.58 c 27.05,0 48.96,-21.92 48.96,-48.96 v -51 h 166.43 v 0.71 125.34 c 0,27.04 -21.92,48.96 -48.95,48.96"
         style="fill:#f89f29;fill-opacity:1;fill-rule:nonzero;stroke:none"
         id="path942" />
      <path
         d="m 3975.45,2681.66 c 0,27.04 -21.91,48.96 -48.96,48.96 h -337.58 c -31.38,0 -56.82,-25.44 -56.82,-56.82 v -43.14 h 443.36 v 51"
         style="fill:#f7942a;fill-opacity:1;fill-rule:nonzero;stroke:none"
         id="path944" />
      <path
         d="m 4092.32,3106.69 c -17.03,37.37 -48.45,60.39 -82.47,60.39 h -241.92 -28.33 -241.92 c -34.01,0 -65.43,-23.02 -82.47,-60.39 l -107.98,-236.9 h 47.22 l 96.57,211.85 c 15.23,33.41 43.33,53.99 73.75,53.99 h 216.33 25.34 216.33 c 30.41,0 58.52,-20.58 73.75,-53.99 l 96.57,-211.85 h 47.22 l -107.99,236.9"
         style="fill:#f7942a;fill-opacity:1;fill-rule:nonzero;stroke:none"
         id="path946" />
      <path
         d="m 3982.77,3135.63 h -458 c -30.42,0 -58.52,-20.58 -73.75,-53.99 l -96.57,-211.85 h 33.8 l 106.44,229.45 c 8.06,13.73 22.25,22.08 37.52,22.08 h 129.71 74.18 35.33 37.36 166.53 c 15.28,0 29.47,-8.35 37.53,-22.08 l 106.44,-229.45 h 33.8 l -96.57,211.85 c -15.23,33.41 -43.34,53.99 -73.75,53.99"
         style="fill:#f89f29;fill-opacity:1;fill-rule:nonzero;stroke:none"
         id="path948" />
      <path
         d="m 3975.32,3121.32 h -443.11 c -15.27,0 -29.46,-8.35 -37.52,-22.08 l -106.44,-229.45 h 134.62 24.42 114.91 3.07 180.07 114.9 20.92 3.5 134.63 l -106.44,229.45 c -8.06,13.73 -22.25,22.08 -37.53,22.08"
         style="fill:#ffffff;fill-opacity:1;fill-rule:nonzero;stroke:none"
         id="path950" />
      <path
         d="m 3786.62,2869.79 h -131.91 l 103.52,251.53 h -53.71 l -123.05,-251.53 h -34.18 -24.42 -21.43 l 127.43,229.45 c 7.62,13.73 21.03,22.08 35.47,22.08 h 138.79 c 27.11,0 46.76,-31.42 39.55,-63.23 l -56.06,-188.3"
         style="fill:#eef5fc;fill-opacity:1;fill-rule:nonzero;stroke:none"
         id="path952" />
      <path
         d="m 3435.87,2695.49 h -131.9 c -12.46,0 -22.55,10.1 -22.55,22.56 v 65.07 c 0,12.45 10.09,22.55 22.55,22.55 h 131.9 c 12.45,0 22.55,-10.1 22.55,-22.55 v -65.07 c 0,-12.46 -10.1,-22.56 -22.55,-22.56"
         style="fill:#deecf9;fill-opacity:1;fill-rule:nonzero;stroke:none"
         id="path954" />
      <path
         d="m 3446.19,2709.02 h -28.35 c -22.95,0 -41.56,18.61 -41.56,41.56 0,22.95 18.61,41.56 41.56,41.56 h 20.47 c 7.13,0 12.9,-5.78 12.9,-12.91 v -65.18 c 0,-2.78 -2.25,-5.03 -5.02,-5.03"
         style="fill:#ffffff;fill-opacity:1;fill-rule:nonzero;stroke:none"
         id="path956" />
      <path
         d="m 4071.67,2805.67 h 131.89 c 12.46,0 22.56,-10.1 22.56,-22.55 v -65.07 c 0,-12.46 -10.1,-22.56 -22.56,-22.56 h -131.89 c -12.46,0 -22.56,10.1 -22.56,22.56 v 65.07 c 0,12.45 10.1,22.55 22.56,22.55"
         style="fill:#deecf9;fill-opacity:1;fill-rule:nonzero;stroke:none"
         id="path958" />
      <path
         d="m 4061.35,2792.14 h 28.35 c 22.95,0 41.55,-18.61 41.55,-41.56 0,-22.95 -18.6,-41.56 -41.55,-41.56 h -20.47 c -7.13,0 -12.9,5.78 -12.9,12.9 v 65.19 c 0,2.78 2.24,5.03 5.02,5.03"
         style="fill:#ffffff;fill-opacity:1;fill-rule:nonzero;stroke:none"
         id="path960" />
      <path
         d="m 3977.24,2698.54 h -446.95 c -8.2,0 -14.85,6.65 -14.85,14.85 v 72.96 c 0,8.21 6.65,14.86 14.85,14.86 h 446.95 c 8.2,0 14.85,-6.65 14.85,-14.86 v -72.96 c 0,-8.2 -6.65,-14.85 -14.85,-14.85"
         style="fill:#262628;fill-opacity:1;fill-rule:nonzero;stroke:none"
         id="path962" />
      <path
         d="m 3856.56,2761.83 h -205.58 c -2.96,0 -5.38,2.42 -5.38,5.39 0,2.96 2.42,5.38 5.38,5.38 h 205.58 c 2.96,0 5.38,-2.42 5.38,-5.38 0,-2.97 -2.42,-5.39 -5.38,-5.39"
         style="fill:#ffffff;fill-opacity:1;fill-rule:nonzero;stroke:none"
         id="path964" />
      <path
         d="m 3666.9,3256.71 h 177.7 c 37.03,0 67.06,-30.03 67.06,-67.06 v -22.57 h -315.78 v 18.6 c 0,39.23 31.8,71.03 71.02,71.03"
         style="fill:#6f666a;fill-opacity:1;fill-rule:nonzero;stroke:none"
         id="path966" />
      <path
         d="m 3763.02,3240.18 h -16.32 c -52.45,0 -94.96,-16.87 -94.96,-37.69 v -35.41 h 200.93 v 37.51 c 0,19.66 -40.14,35.59 -89.65,35.59"
         style="fill:#766f72;fill-opacity:1;fill-rule:nonzero;stroke:none"
         id="path968" />
      <path
         d="m 4099.68,3147.85 h 42.62 c 3.29,0 5.92,-2.72 5.81,-6 l -1.72,-51.08 c -0.18,-5.17 5.98,-7.98 9.76,-4.45 l 64.2,59.96 c 1.08,1.01 2.49,1.57 3.97,1.57 h 90.06 c 7.02,0 12.71,5.69 12.71,12.72 v 214.69 c 0,7.03 -5.69,12.72 -12.71,12.72 h -214.7 c -7.02,0 -12.72,-5.69 -12.72,-12.72 v -214.69 c 0,-7.03 5.7,-12.72 12.72,-12.72"
         style="fill:#4d8ed2;fill-opacity:1;fill-rule:nonzero;stroke:none"
         id="path970" />
      <path
         d="m 4372.46,3070.64 h -95.71 c -14.76,0 -26.71,11.96 -26.71,26.71 v 95.71 c 0,14.76 11.95,26.72 26.71,26.72 h 95.71 c 14.76,0 26.71,-11.96 26.71,-26.72 v -95.71 c 0,-14.75 -11.95,-26.71 -26.71,-26.71"
         style="fill:#f36454;fill-opacity:1;fill-rule:nonzero;stroke:none"
         id="path972" />
      <path
         d="m 4322.13,3141.37 -0.01,-0.02 0.01,0.02"
         style="fill:#ffffff;fill-opacity:1;fill-rule:nonzero;stroke:none"
         id="path974" />
      <path
         d="m 4325.53,3121.24 c 1.64,0 3.28,-0.4 4.77,-1.18 l 13.23,-6.95 c 1.37,-0.73 2.48,-0.09 2.91,0.21 0.41,0.3 1.35,1.17 1.09,2.7 l -2.52,14.71 c -0.58,3.33 0.53,6.73 2.95,9.08 l 10.68,10.43 c 1.12,1.08 0.86,2.34 0.71,2.83 -0.16,0.49 -0.7,1.66 -2.23,1.88 l -14.78,2.14 c -3.35,0.49 -6.24,2.59 -7.73,5.62 l -6.6,13.38 -0.01,0.01 c -0.68,1.39 -1.96,1.54 -2.46,1.54 h -0.01 c -0.52,0 -1.79,-0.15 -2.48,-1.55 l -6.6,-13.38 c -1.49,-3.03 -4.38,-5.13 -7.73,-5.62 l -14.77,-2.14 c -1.54,-0.22 -2.07,-1.39 -2.23,-1.88 -0.16,-0.49 -0.41,-1.75 0.69,-2.83 l 10.7,-10.42 c 2.42,-2.36 3.52,-5.76 2.95,-9.08 l -2.53,-14.72 c -0.26,-1.52 0.69,-2.4 1.1,-2.7 0.43,-0.3 1.55,-0.92 2.91,-0.21 l 13.21,6.95 c 1.5,0.78 3.14,1.18 4.78,1.18 z m 19.28,-15.96 c -1.63,0 -3.27,0.39 -4.78,1.19 l -13.21,6.95 h -2.57 l -13.21,-6.95 c -3.49,-1.83 -7.64,-1.52 -10.82,0.78 -3.18,2.31 -4.74,6.16 -4.09,10.04 l 2.54,14.71 -0.8,2.45 -10.69,10.42 c -2.81,2.75 -3.81,6.78 -2.59,10.52 1.21,3.74 4.38,6.42 8.28,6.98 l 14.78,2.15 2.07,1.51 6.61,13.38 c 1.74,3.53 5.26,5.73 9.2,5.73 h 0.01 c 3.93,-0.01 7.45,-2.2 9.19,-5.73 l 6.61,-13.38 2.08,-1.51 14.77,-2.15 c 3.9,-0.56 7.07,-3.24 8.28,-6.98 1.23,-3.74 0.23,-7.78 -2.59,-10.52 l -10.69,-10.42 -0.79,-2.45 2.51,-14.71 c 0.68,-3.88 -0.89,-7.72 -4.07,-10.03 -1.8,-1.31 -3.91,-1.98 -6.03,-1.98"
         style="fill:#ffffff;fill-opacity:1;fill-rule:nonzero;stroke:none"
         id="path976" />
      <path
         d="m 4201.23,3315.86 c -28.42,0 -51.53,-23.12 -51.53,-51.52 0,-28.42 23.11,-51.53 51.53,-51.53 28.41,0 51.52,23.11 51.52,51.53 0,28.4 -23.11,51.52 -51.52,51.52 z m 0,-113.55 c -34.21,0 -62.03,27.82 -62.03,62.03 0,34.2 27.82,62.03 62.03,62.03 34.2,0 62.03,-27.83 62.03,-62.03 0,-34.21 -27.83,-62.03 -62.03,-62.03"
         style="fill:#ffffff;fill-opacity:1;fill-rule:nonzero;stroke:none"
         id="path978" />
      <path
         d="m 4199.85,3254.39 -0.03,-0.03 z m -0.02,-6.13 c -1.69,0 -3.28,0.66 -4.46,1.86 l -24.52,24.5 c -2.05,2.05 -2.05,5.38 0,7.43 2.05,2.05 5.38,2.05 7.43,0 l 21.54,-21.54 78.35,78.35 c 2.05,2.05 5.38,2.05 7.44,0 2.05,-2.05 2.05,-5.38 0,-7.43 l -82.89,-82.87 -2.89,-0.3"
         style="fill:#ffffff;fill-opacity:1;fill-rule:nonzero;stroke:none"
         id="path980" />
      <path
         d="m 3264.53,3123.74 h 67.4 c 10.39,0 18.82,8.47 18.82,18.91 v 67.75 c 0,10.44 -8.43,18.91 -18.82,18.91 h -67.4 c -10.39,0 -18.81,-8.47 -18.81,-18.91 v -67.75 c 0,-10.44 8.42,-18.91 18.81,-18.91"
         style="fill:#4d8ed2;fill-opacity:1;fill-rule:nonzero;stroke:none"
         id="path982" />
      <path
         d="m 3321.6,3175.56 h 87.16 c 13.44,0 24.33,10.94 24.33,24.45 v 87.61 c 0,13.5 -10.89,24.45 -24.33,24.45 h -87.16 c -13.44,0 -24.33,-10.95 -24.33,-24.45 v -87.61 c 0,-13.51 10.89,-24.45 24.33,-24.45"
         style="fill:#f36454;fill-opacity:1;fill-rule:nonzero;stroke:none"
         id="path984" />
    </g>
  </g>
</svg>
