<?xml version="1.0" encoding="UTF-8" standalone="no"?>
<svg
   xmlns:dc="http://purl.org/dc/elements/1.1/"
   xmlns:cc="http://creativecommons.org/ns#"
   xmlns:rdf="http://www.w3.org/1999/02/22-rdf-syntax-ns#"
   xmlns:svg="http://www.w3.org/2000/svg"
   xmlns="http://www.w3.org/2000/svg"
   xmlns:sodipodi="http://sodipodi.sourceforge.net/DTD/sodipodi-0.dtd"
   xmlns:inkscape="http://www.inkscape.org/namespaces/inkscape"
   width="49.561951mm"
   height="62.586365mm"
   viewBox="0 0 49.561951 62.586365"
   version="1.1"
   id="svg1262"
   inkscape:version="1.0.1 (0767f8302a, 2020-10-17)"
   sodipodi:docname="check.svg">
  <defs
     id="defs1256" />
  <sodipodi:namedview
     id="base"
     pagecolor="#ffffff"
     bordercolor="#666666"
     borderopacity="1.0"
     inkscape:pageopacity="0.0"
     inkscape:pageshadow="2"
     inkscape:zoom="0.35"
     inkscape:cx="232.71073"
     inkscape:cy="367.65518"
     inkscape:document-units="mm"
     inkscape:current-layer="layer1"
     inkscape:document-rotation="0"
     showgrid="false"
     fit-margin-top="0"
     fit-margin-left="0"
     fit-margin-right="0"
     fit-margin-bottom="0"
     inkscape:window-width="1854"
     inkscape:window-height="1015"
     inkscape:window-x="66"
     inkscape:window-y="28"
     inkscape:window-maximized="1" />
  <metadata
     id="metadata1259">
    <rdf:RDF>
      <cc:Work
         rdf:about="">
        <dc:format>image/svg+xml</dc:format>
        <dc:type
           rdf:resource="http://purl.org/dc/dcmitype/StillImage" />
        <dc:title></dc:title>
      </cc:Work>
    </rdf:RDF>
  </metadata>
  <g
     inkscape:label="Layer 1"
     inkscape:groupmode="layer"
     id="layer1"
     transform="translate(-44.261952,-50.891234)">
    <path
       d="m 46.887412,100.45323 h 8.79662 c 0.67903,0 1.22184,0.56166 1.19914,1.2384 l -0.35513,10.54273 c -0.0351,1.06704 1.23425,1.64701 2.01442,0.91843 l 13.25069,-12.37549 c 0.22291,-0.20828 0.51368,-0.32413 0.81938,-0.32413 h 18.58808 c 1.4489,0 2.62329,-1.174386 2.62329,-2.625336 v -44.31126 c 0,-1.45095 -1.17439,-2.62534 -2.62329,-2.62534 h -44.31331 c -1.44891,0 -2.62535,1.17439 -2.62535,2.62534 v 44.31126 c 0,1.45095 1.17644,2.625336 2.62535,2.625336"
       style="fill:#4d8ed2;fill-opacity:1;fill-rule:nonzero;stroke:none;stroke-width:0.206396"
       id="path970" />
    <path
       d="m 67.846982,65.776574 c -5.86582,0 -10.63565,4.77188 -10.63565,10.63354 0,5.86582 4.76983,10.63564 10.63565,10.63564 5.86371,0 10.63353,-4.76982 10.63353,-10.63564 0,-5.86166 -4.76982,-10.63354 -10.63353,-10.63354 z m 0,23.4363 c -7.06087,0 -12.80277,-5.74196 -12.80277,-12.80276 0,-7.05876 5.7419,-12.80277 12.80277,-12.80277 7.05875,0 12.80276,5.74401 12.80276,12.80277 0,7.0608 -5.74401,12.80276 -12.80276,12.80276"
       style="fill:#ffffff;fill-opacity:1;fill-rule:nonzero;stroke:none;stroke-width:0.206396"
       id="path978" />
    <path
       d="m 67.562112,78.463794 -0.006,0.006 z m -0.004,1.26519 c -0.3487,0 -0.67698,-0.13632 -0.92054,-0.3838 l -5.06083,-5.05668 c -0.423,-0.423 -0.423,-1.11044 0,-1.53356 0.423,-0.423 1.11039,-0.423 1.5335,0 l 4.44582,4.44582 16.17113,-16.17119 c 0.423,-0.423 1.11039,-0.423 1.53561,0 0.423,0.423 0.423,1.11044 0,1.53356 l -17.10823,17.10407 -0.59646,0.062"
       style="fill:#ffffff;fill-opacity:1;fill-rule:nonzero;stroke:none;stroke-width:0.206396"
       id="path980" />
  </g>
</svg>
