<?xml version="1.0" encoding="UTF-8" standalone="no"?>
<svg
   xmlns:dc="http://purl.org/dc/elements/1.1/"
   xmlns:cc="http://creativecommons.org/ns#"
   xmlns:rdf="http://www.w3.org/1999/02/22-rdf-syntax-ns#"
   xmlns:svg="http://www.w3.org/2000/svg"
   xmlns="http://www.w3.org/2000/svg"
   xmlns:sodipodi="http://sodipodi.sourceforge.net/DTD/sodipodi-0.dtd"
   xmlns:inkscape="http://www.inkscape.org/namespaces/inkscape"
   width="107.68378mm"
   height="84.287399mm"
   viewBox="0 0 107.68378 84.287399"
   version="1.1"
   id="svg2893"
   inkscape:version="1.0.1 (0767f8302a, 2020-10-17)"
   sodipodi:docname="user.svg">
  <defs
     id="defs2887" />
  <sodipodi:namedview
     id="base"
     pagecolor="#ffffff"
     bordercolor="#666666"
     borderopacity="1.0"
     inkscape:pageopacity="0.0"
     inkscape:pageshadow="2"
     inkscape:zoom="0.35"
     inkscape:cx="232.47158"
     inkscape:cy="143.61733"
     inkscape:document-units="mm"
     inkscape:current-layer="layer1"
     inkscape:document-rotation="0"
     showgrid="false"
     fit-margin-top="0"
     fit-margin-left="0"
     fit-margin-right="0"
     fit-margin-bottom="0"
     inkscape:window-width="1854"
     inkscape:window-height="1015"
     inkscape:window-x="66"
     inkscape:window-y="28"
     inkscape:window-maximized="1" />
  <metadata
     id="metadata2890">
    <rdf:RDF>
      <cc:Work
         rdf:about="">
        <dc:format>image/svg+xml</dc:format>
        <dc:type
           rdf:resource="http://purl.org/dc/dcmitype/StillImage" />
        <dc:title></dc:title>
      </cc:Work>
    </rdf:RDF>
  </metadata>
  <g
     inkscape:label="Layer 1"
     inkscape:groupmode="layer"
     id="layer1"
     transform="translate(-44.325229,-110.16791)">
    <g
       id="g1300"
       transform="matrix(0.07652751,0,0,-0.07652751,-348.53064,376.77351)">
      <path
         d="m 6504.58,2645.85 c -7.75,0 -15.38,1.62 -21.32,4.63 -17.38,8.84 -25.79,32.51 -18.79,52.88 4.65,13.51 14.93,26.37 26.14,26.37 5.7,0 11.65,-3.33 17.21,-11.6 11.84,-17.57 38.69,-32.51 31.68,-52.88 -4.61,-13.42 -19.99,-19.4 -34.92,-19.4"
         style="fill:#d1f0fc;fill-opacity:1;fill-rule:nonzero;stroke:none"
         id="path1090" />
      <path
         d="m 5578.6,3327.53 c -32.21,-0.01 -52.27,43.45 -48.25,72.32 4.01,28.87 33.39,52.29 65.6,52.3 32.21,0.01 68.59,-18.82 41.98,-54.08 -19.08,-25.29 -27.11,-70.53 -59.33,-70.54"
         style="fill:#d1f0fc;fill-opacity:1;fill-rule:nonzero;stroke:none"
         id="path1092" />
      <path
         d="m 5154.43,2723.17 c -12.77,0 -23.55,7.58 -20.33,28 3.38,21.35 -4.84,52.63 12.75,61.18 2.62,1.27 5.36,1.86 8.15,1.86 15.92,0 33.35,-18.92 38.33,-35.66 5.85,-19.67 -3.66,-42.55 -21.24,-51.1 -5.53,-2.69 -11.81,-4.29 -17.66,-4.28"
         style="fill:#d1f0fc;fill-opacity:1;fill-rule:nonzero;stroke:none"
         id="path1094" />
      <path
         d="m 6412.96,3291.61 h -137.31 c 25.92,-43.8 44.26,-70.61 46.22,-156.8 1.07,-47.26 -22.21,-102.65 -45.33,-149.24 6.64,-4.96 10.26,-13.57 8.16,-22.38 -10.35,-43.35 -25.23,-86.19 -47.1,-125 7.18,-30.05 17.58,-61.91 15.65,-84.08 -7.4,-85.26 -69.41,-149.52 -145.06,-166.53 -15.91,-3.58 -32.11,-5.25 -48.42,-5.25 -11.19,0 -22.43,0.79 -33.65,2.28 0.27,-2.69 0.28,-5.46 0.01,-8.27 l -11.04,-116.98 c -0.69,-7.23 -3.15,-13.89 -6.94,-19.58 0,-0.1 0,-0.2 0,-0.3 0,-6.62 -1.7,-12.85 -4.69,-18.26 1.21,-0.57 2.42,-1.14 3.63,-1.71 49.99,-23.27 105.03,-37.12 159.07,-37.12 56.55,0 112,15.17 159.36,50.58 59.43,44.44 100.69,117.33 118.6,196.05 13.12,57.66 16.6,124.12 6.15,182.78 -11.75,65.93 -32.92,124.13 -28.02,193.35 5.16,73.1 25.85,136.7 12.95,211.25 -4.53,26.13 -12.04,51.52 -22.24,75.21 m -983.64,0 h -198.28 c -33.02,-72.48 -31.16,-177.47 -10.61,-248.91 15.05,-52.34 43.48,-98.83 50.04,-154.4 6.47,-54.8 -11.81,-109.23 -15.38,-164.39 -7.89,-121.73 59.62,-232.24 154.56,-281.2 45.4,-23.42 94.82,-33.54 144.71,-33.54 42.12,0 84.58,7.22 125.21,19.75 1.17,0.36 2.34,0.72 3.52,1.09 -8.8,6.99 -14.79,17.39 -15.92,29.35 l -11.05,116.98 c -2.36,24.99 17.29,46.58 42.38,46.58 h 65.78 v 22.66 c 0,8.48 1.51,16.65 4.3,24.29 -10.35,0.52 -20.7,1.11 -31.06,1.79 -0.97,0.06 -1.94,0.13 -2.9,0.21 h -117.78 c -3.2,-0.1 -6.4,-0.15 -9.61,-0.15 -3.18,0 -6.37,0.05 -9.56,0.15 h -21.48 c -4.25,0 -8.29,1.07 -11.84,2.97 -50.32,7.46 -98.64,28.66 -135.53,67.33 -39.18,41.09 -61.81,98.58 -66.51,155.98 -3.44,42.03 1.21,88.43 15.33,127.01 7.82,21.37 21.75,41.52 32.06,62.05 l -2.72,7.27 c -1.85,4.19 -3.6,8.66 -5.13,13.78 -10.17,33.92 -9.61,71.86 8.12,99.81 -0.07,29.84 8.91,54.83 19.35,83.54"
         style="fill:#dff4fd;fill-opacity:1;fill-rule:nonzero;stroke:none"
         id="path1096" />
      <path
         d="m 6275.65,2382.39 h -108.64 c 15.36,0 27.31,13.75 25.63,29.5 l -1.67,15.51 c 6.77,-1.27 13.67,-1.92 20.6,-1.92 13.82,0 27.75,2.57 41.09,7.88 54.58,21.7 63.41,81.57 48.2,132.38 -1.53,5.12 -3.28,9.59 -5.14,13.78 l -39,104.5 7.21,0.12 c 4.77,0.08 9.11,1.67 12.61,4.29 23.12,-46.59 46.4,-101.98 45.33,-149.24 -1.96,-86.19 -20.3,-113 -46.22,-156.8 m -760.41,0 h -85.92 c -10.44,28.71 -19.42,53.7 -19.35,83.54 8.83,-13.92 21.92,-25.36 40.07,-32.57 13.31,-5.3 27.24,-7.88 41.04,-7.88 l -1.46,-13.59 c -1.7,-15.75 10.26,-29.5 25.62,-29.5 m -105.54,204.4 c -10.31,20.53 -24.24,40.68 -32.06,62.05 -14.12,38.58 -18.77,84.98 -15.33,127.01 4.7,57.4 27.33,114.89 66.51,155.98 36.89,38.67 85.21,59.87 135.53,67.33 -7.44,-3.97 -12.81,-11.57 -13.78,-20.67 l -5.28,-49.09 c -3.73,-2.56 -7.38,-5.24 -10.94,-8.06 -30.86,-24.32 -54.66,-58.2 -73.02,-92.58 -1.85,-3.46 -3.61,-6.96 -5.38,-10.46 -9.63,-19.42 -17.71,-39.6 -24.51,-60.18 -1.41,-4.24 -8.77,-33.36 -13.95,-53.65 -2.59,-10.16 4.99,-20.07 15.48,-20.24 l 85.79,-1.41 -0.01,-0.08 -72.77,1.28 -36.28,-97.23 m 753.84,95.59 -0.01,0.11 92.35,1.51 -92.34,-1.62 m 74.06,153.43 c -8.05,14.29 -17.05,28.04 -27.11,41.06 -10.74,13.92 -22.7,26.93 -35.9,38.55 -11.57,10.19 -24.93,19.07 -39.02,26.97 l -3.88,36.1 c -1.45,13.45 -12.49,23.64 -25.63,23.64 h -151.09 c -9.74,1.26 -19.52,2.25 -29.31,3 2.56,7.35 3.94,15.18 3.94,23.29 v 22.66 h 54.15 c 22.27,0 40.26,17.01 42.37,38.31 11.22,1.49 22.46,2.28 33.65,2.28 16.31,0 32.51,-1.67 48.42,-5.25 75.65,-17.01 137.66,-81.27 145.06,-166.53 1.93,-22.17 -8.47,-54.03 -15.65,-84.08 m -620.76,166.32 h -19.17 c 3.19,0.1 6.38,0.15 9.56,0.15 3.21,0 6.41,-0.05 9.61,-0.15"
         style="fill:#cff0fc;fill-opacity:1;fill-rule:nonzero;stroke:none"
         id="path1098" />
      <path
         d="M 5983.75,3051.08 H 5698.5 c -25.09,0 -44.74,21.59 -42.38,46.58 l 11.05,116.98 c 2.07,21.87 20.42,38.57 42.38,38.57 h 263.15 c 21.96,0 40.32,-16.7 42.39,-38.57 l 11.04,-116.98 c 2.37,-24.99 -17.29,-46.58 -42.38,-46.58"
         style="fill:#f89f29;fill-opacity:1;fill-rule:nonzero;stroke:none"
         id="path1100" />
      <path
         d="m 5957.15,3069.93 h -232.04 c -20.42,0 -36.4,17.56 -34.48,37.89 l 8.98,95.17 c 1.69,17.78 16.62,31.37 34.48,31.37 h 214.07 c 17.86,0 32.8,-13.59 34.48,-31.37 l 8.99,-95.17 c 1.91,-20.33 -14.07,-37.89 -34.48,-37.89"
         style="fill:#f7942a;fill-opacity:1;fill-rule:nonzero;stroke:none"
         id="path1102" />
      <path
         d="m 6167.01,2382.39 h -651.77 c -15.36,0 -27.32,13.75 -25.62,29.5 l 60.95,566.6 c 1.44,13.45 12.48,23.64 25.62,23.64 h 529.87 c 13.14,0 24.18,-10.19 25.63,-23.64 l 60.95,-566.6 c 1.68,-15.75 -10.27,-29.5 -25.63,-29.5"
         style="fill:#f89f29;fill-opacity:1;fill-rule:nonzero;stroke:none"
         id="path1104" />
      <path
         d="m 5737.07,2967.23 h -29.95 v 83.85 h 29.95 v -83.85"
         style="fill:#766f72;fill-opacity:1;fill-rule:nonzero;stroke:none"
         id="path1106" />
      <path
         d="m 5975.13,2967.23 h -29.94 v 83.85 h 29.94 v -83.85"
         style="fill:#766f72;fill-opacity:1;fill-rule:nonzero;stroke:none"
         id="path1108" />
      <path
         d="m 6263.93,2684.14 c 13.83,0.22 23.98,13.21 20.77,26.67 -14.15,59.32 -36.81,117.66 -74.21,166.06 -10.74,13.92 -22.7,26.93 -35.9,38.55 -27.03,23.79 -63.78,40.47 -96.92,54.11 -35.42,14.57 -72.55,24.98 -110.41,30.85 -39.71,6.16 -80.01,7.35 -120.14,6.46 -36.63,-0.81 -73.06,-2.11 -109.6,-4.5 -35.98,-2.35 -69.96,-15.95 -103.07,-29.23 -34.81,-13.97 -70.4,-28.34 -100.1,-51.77 -30.86,-24.32 -54.66,-58.2 -73.02,-92.58 -1.85,-3.46 -3.61,-6.96 -5.38,-10.46 -9.63,-19.42 -17.71,-39.6 -24.51,-60.18 -1.41,-4.24 -8.77,-33.36 -13.95,-53.65 -2.59,-10.16 4.99,-20.07 15.48,-20.24 l 180.96,-2.97 c -3.8,-91.88 -8.01,-198.95 -11.54,-298.07 -0.05,-1.22 483.96,-1 484,0.33 2.6,107.74 4.79,218.57 6.25,297.8 l 171.29,2.82"
         style="fill:#ebebe7;fill-opacity:1;fill-rule:nonzero;stroke:none"
         id="path1110" />
      <path
         d="m 5613.82,2678.76 0.09,2.3 -0.7,0.01 v 0.2 l 0.72,-0.01 c -0.04,-0.83 -0.07,-1.67 -0.11,-2.5"
         style="fill:#e59a31;fill-opacity:1;fill-rule:nonzero;stroke:none"
         id="path1112" />
      <path
         d="m 5611.94,2632.23 1.88,46.53 c 0.04,0.83 0.07,1.67 0.11,2.5 l -0.72,0.01 0.04,1.49 4.14,91.39 27.22,-100.58 -32.67,-41.34"
         style="fill:#d4d5d0;fill-opacity:1;fill-rule:nonzero;stroke:none"
         id="path1114" />
      <path
         d="m 6089.46,2651.88 c -7.78,3.88 -17.48,10.91 -23.69,23.32 -1.72,3.43 -3.87,5.59 -6.21,6.68 l 24.96,92.27 4.14,-91.39 0.8,-30.88"
         style="fill:#d4d5d0;fill-opacity:1;fill-rule:nonzero;stroke:none"
         id="path1116" />
      <path
         d="m 5997.79,3281.47 c 4.89,6.4 7.9,14.3 7.9,22.98 0,10.89 -4.64,20.65 -11.97,27.59 l 0.01,0.03 c 0.78,12.04 -3.32,23.22 -10.52,31.79 -0.64,1.99 -1.44,4 -2.39,6 13.31,12.76 29.91,35.19 12.41,57.03 -20.81,26 -50.32,21.1 -71.27,11.36 -4.76,-2.22 -10.1,1.92 -9.06,7.07 2.53,12.56 0.44,29.19 -24.55,36.12 -34.31,9.51 -42.44,-12.19 -52.96,-23.74 -5.32,2.05 -11.03,3.35 -17.03,3.74 -19.4,1.26 -37.15,-7.28 -48.51,-21.33 -4.01,0.04 -8.33,0.19 -13.06,0.5 -3.16,0.21 -6.28,0.1 -9.37,-0.14 -17.6,-0.93 -33.26,-9.84 -43.23,-23.36 -13.8,-17.61 -20.58,-44.7 -13.84,-80.35 l 0.59,-2.25 c -0.02,-1.72 -0.05,-3.49 -0.08,-5.31 -5.76,-6.67 -9.37,-15.25 -9.37,-24.75 0,-11.08 4.82,-20.96 12.37,-27.91 -4.9,-6.4 -7.9,-14.3 -7.9,-22.98 0,-16.08 10.01,-29.76 24.11,-35.33 v -3.57 h 247.43 v 3.78 c 4.49,-1.87 9.42,-2.93 14.6,-2.93 21.02,0 38.06,17.04 38.06,38.05 0,11.07 -4.82,20.96 -12.37,27.91"
         style="fill:#502d16;fill-opacity:1;fill-rule:nonzero;stroke:none"
         id="path1118" />
      <path
         d="m 5970.32,3272.34 h -8.08 v 16.57 c -29.47,0.21 -34.93,16.9 -33.57,32.43 -11.58,-7.49 -25.63,-11.52 -40.57,-10.55 -17.4,1.12 -32.74,8.8 -43.81,20.34 h -1.58 c -1.3,-0.02 -2.58,-0.01 -3.88,-0.02 -12.68,-15.96 -32.96,-25.67 -55.15,-24.23 -13.48,0.87 -25.73,5.75 -35.63,13.35 0.69,-10.62 -1.99,-21.58 -13.44,-27.31 v -20.58 h -11.06 c -20.89,0 -37.83,-16.93 -37.83,-37.82 0,-20.89 16.94,-37.83 37.83,-37.83 h 11.06 v -3.5 -22.87 c 0,-29.46 11.3,-56.22 29.67,-76.43 v -65.47 c 0,-42.07 37.19,-76.49 82.65,-76.49 45.47,0 82.67,34.42 82.67,76.49 v 62.18 c 20.17,20.54 32.64,48.66 32.64,79.72 v 22.87 3.5 h 8.08 c 20.89,0 37.83,16.94 37.83,37.83 0,20.89 -16.94,37.82 -37.83,37.82"
         style="fill:#f9b293;fill-opacity:1;fill-rule:nonzero;stroke:none"
         id="path1120" />
      <path
         d="m 5764.28,3093.71 c -17.99,19.73 -29.13,45.82 -29.65,74.5 0.53,-28.63 11.72,-54.59 29.65,-74.32 v -0.18 m 197.5,66.28 v 0 0 m 0.04,0.45 c 0,0.01 0,0.02 0,0.03 0,-0.01 0,-0.02 0,-0.03 m 0.08,0.94 c 0,0 0,0.01 0,0.02 0,-0.01 0,-0.01 0,-0.02 m 0.03,0.43 c 0,0.03 0,0.05 0.01,0.08 -0.01,-0.03 -0.01,-0.05 -0.01,-0.08 m 0.03,0.47 c 0.01,0.01 0.01,0.03 0.01,0.05 0,-0.02 0,-0.03 -0.01,-0.05 m 0.04,0.49 c 0,0.02 0,0.04 0,0.05 0,-0.01 0,-0.03 0,-0.05 m 0.03,0.44 c 0,0.03 0,0.06 0,0.1 0,-0.04 0,-0.07 0,-0.1 m 0.02,0.45 c 0,0.03 0.01,0.06 0.01,0.09 0,-0.03 -0.01,-0.06 -0.01,-0.09 m 0.05,0.96 c 0.01,0.03 0.01,0.07 0.01,0.1 0,-0.04 0,-0.07 -0.01,-0.1 m 0.03,0.44 c 0,0.04 0,0.07 0,0.11 0,-0.04 0,-0.07 0,-0.11 m 0.02,0.5 c 0,0.02 0,0.03 0,0.04 0,-0.01 0,-0.02 0,-0.04 m 0.02,0.47 c 0,0.04 0,0.07 0,0.11 0,-0.04 0,-0.07 0,-0.11 m 0.01,0.43 c 0,0.05 0,0.09 0.01,0.14 -0.01,-0.05 -0.01,-0.09 -0.01,-0.14 m 0.02,0.49 c 0,0.02 0,0.05 0,0.08 0,-0.03 0,-0.06 0,-0.08 m 0.01,0.51 c 0,0.03 0,0.06 0,0.09 0,-0.03 0,-0.06 0,-0.09 m 0.01,0.43 c 0,0.04 0,0.09 0,0.13 0,-0.04 0,-0.09 0,-0.13 m -227.59,0.43 c 0,0.08 -0.01,0.17 -0.01,0.25 0,-0.08 0.01,-0.17 0.01,-0.25 m 227.6,0.02 c 0,0.04 0,0.08 0,0.12 0,-0.04 0,-0.08 0,-0.12 m -227.61,0.43 c 0,0.1 0,0.2 0,0.3 0,-0.1 0,-0.2 0,-0.3 m 227.62,0.12 c 0,0.02 0,0.04 0,0.06 0,-0.02 0,-0.04 0,-0.06 m 0,0.43 c 0,0.04 0,0.09 0,0.13 0,-0.05 0,-0.09 0,-0.13 m -227.63,0.02 c 0,0.06 0,0.11 0,0.16 0,-0.05 0,-0.1 0,-0.16 m 227.63,0.43 c 0,0.04 0,0.08 0,0.12 0,-0.04 0,-0.08 0,-0.12 m -227.63,0.01 c 0,0.04 0,0.09 0,0.13 0,-0.05 0,-0.09 0,-0.13"
         style="fill:#f6873a;fill-opacity:1;fill-rule:nonzero;stroke:none"
         id="path1122" />
      <path
         d="m 5846.93,3019.18 c -32.67,0 -59.47,25.02 -62.37,56.94 -7.44,5.05 -14.25,10.96 -20.28,17.59 v 0.18 c -17.93,19.73 -29.12,45.69 -29.65,74.32 0,0.03 0,0.07 0,0.11 0,0.08 -0.01,0.17 -0.01,0.25 0,0.07 0,0.14 0,0.2 0,0.1 0,0.2 0,0.3 -0.01,0.09 -0.01,0.18 -0.01,0.27 0,0.06 0,0.11 0,0.16 0,0.09 0,0.19 0,0.28 0,0.04 0,0.08 0,0.13 0,0.14 0,0.27 0,0.41 v 0 22.87 c 0,-62.86 50.96,-113.82 113.82,-113.82 62.86,0 113.81,50.96 113.81,113.82 v -22.87 0 c 0,-0.14 0,-0.28 0,-0.43 0,-0.04 0,-0.08 0,-0.12 0,-0.11 0,-0.22 0,-0.32 0,-0.04 0,-0.09 0,-0.13 0,-0.13 0,-0.25 0,-0.37 0,-0.02 0,-0.04 0,-0.06 -0.01,-0.14 -0.01,-0.29 -0.01,-0.43 0,-0.04 0,-0.08 0,-0.12 0,-0.1 -0.01,-0.21 -0.01,-0.32 0,-0.04 0,-0.09 0,-0.13 0,-0.11 -0.01,-0.23 -0.01,-0.34 0,-0.03 0,-0.06 0,-0.09 0,-0.15 -0.01,-0.29 -0.01,-0.43 0,-0.03 0,-0.06 0,-0.08 -0.01,-0.12 -0.01,-0.24 -0.01,-0.35 -0.01,-0.05 -0.01,-0.09 -0.01,-0.14 0,-0.1 -0.01,-0.21 -0.01,-0.32 0,-0.04 0,-0.07 0,-0.11 -0.01,-0.14 -0.02,-0.28 -0.02,-0.43 0,-0.01 0,-0.02 0,-0.04 -0.01,-0.13 -0.01,-0.26 -0.02,-0.39 0,-0.04 0,-0.07 0,-0.11 -0.01,-0.11 -0.02,-0.23 -0.02,-0.34 0,-0.03 0,-0.07 -0.01,-0.1 -0.01,-0.29 -0.03,-0.58 -0.04,-0.87 0,-0.03 -0.01,-0.06 -0.01,-0.09 0,-0.12 -0.01,-0.24 -0.02,-0.35 0,-0.04 0,-0.07 0,-0.1 -0.01,-0.13 -0.02,-0.26 -0.03,-0.39 0,-0.01 0,-0.03 0,-0.05 -0.01,-0.14 -0.02,-0.29 -0.03,-0.44 0,-0.02 0,-0.04 -0.01,-0.05 -0.01,-0.13 -0.01,-0.26 -0.02,-0.39 -0.01,-0.03 -0.01,-0.05 -0.01,-0.08 -0.01,-0.13 -0.02,-0.27 -0.03,-0.41 0,-0.01 0,-0.02 0,-0.02 -0.03,-0.3 -0.05,-0.61 -0.08,-0.91 0,-0.01 0,-0.02 0,-0.03 -0.01,-0.15 -0.03,-0.3 -0.04,-0.45 v 0 c -3.27,-36.19 -23.54,-67.43 -52.71,-85.86 -3.81,-30.96 -30.14,-54.95 -62.14,-54.95"
         style="fill:#f79985;fill-opacity:1;fill-rule:nonzero;stroke:none"
         id="path1124" />
      <path
         d="m 5835.63,3154.19 c -8.61,0 -15.43,1.97 -20.42,5.89 -8.49,6.7 -8.09,16.47 -8.06,16.89 0.11,2.06 1.55,3.69 3.93,3.55 2.06,-0.11 3.65,-1.86 3.56,-3.92 -0.01,-0.34 -0.13,-6.49 5.32,-10.71 5.05,-3.91 16.17,-7.09 40.36,0.06 2.04,0.56 4.07,-0.55 4.66,-2.54 0.59,-1.98 -0.55,-4.07 -2.53,-4.66 -10.29,-3.04 -19.25,-4.56 -26.82,-4.56"
         style="fill:#f5746c;fill-opacity:1;fill-rule:nonzero;stroke:none"
         id="path1126" />
      <path
         d="m 5716.85,3222.62 c -1.04,0 -2.07,0.43 -2.82,1.28 -1.36,1.55 -1.22,3.92 0.34,5.29 l 6.27,5.52 -10.3,11.79 c -1.37,1.56 -1.2,3.93 0.35,5.29 1.57,1.37 3.93,1.22 5.3,-0.35 l 15.22,-17.42 -11.88,-10.47 -2.48,-0.93"
         style="fill:#f5746c;fill-opacity:1;fill-rule:nonzero;stroke:none"
         id="path1128" />
      <path
         d="m 5977.83,3220.39 -2.48,0.93 -11.88,10.47 15.22,17.41 c 1.37,1.56 3.74,1.73 5.29,0.36 1.56,-1.37 1.72,-3.73 0.36,-5.29 l -10.31,-11.79 6.28,-5.53 c 1.56,-1.37 1.7,-3.74 0.33,-5.29 -0.74,-0.84 -1.77,-1.27 -2.81,-1.27"
         style="fill:#f5746c;fill-opacity:1;fill-rule:nonzero;stroke:none"
         id="path1130" />
      <path
         d="m 5866.68,3114.25 c -1,0 -1.98,0.39 -2.73,1.17 -3.28,3.47 -7.12,4.42 -10.33,4.42 -3.68,0 -6.53,-1.25 -6.74,-1.34 -0.51,-0.23 -1.03,-0.34 -1.55,-0.34 -1.42,0 -2.78,0.82 -3.42,2.2 -0.85,1.88 -0.04,4.09 1.84,4.95 0.33,0.15 4.52,2.03 10.01,2.03 4.8,0 10.6,-1.44 15.64,-6.76 1.43,-1.5 1.36,-3.88 -0.14,-5.3 -0.73,-0.69 -1.65,-1.03 -2.58,-1.03"
         style="fill:#f78d7c;fill-opacity:1;fill-rule:nonzero;stroke:none"
         id="path1132" />
      <path
         d="m 5767.07,3265.9 c 3.65,-1.37 8.26,-0.66 12.74,-0.23 4.52,0.53 9.06,0.95 13.02,1.17 3.97,0.22 8.53,0.32 13.07,0.3 4.5,0.08 9.18,-0.11 12.63,1.65 3.32,1.65 4.5,5.92 0.21,10.84 -4.04,4.8 -14.21,9.7 -27.34,8.99 -13.11,-0.77 -22.57,-6.77 -25.95,-11.98 -3.61,-5.38 -1.9,-9.48 1.62,-10.74"
         style="fill:#502d16;fill-opacity:1;fill-rule:nonzero;stroke:none"
         id="path1134" />
      <path
         d="m 5928.5,3262.36 c -3.65,-1.41 -8.26,-0.77 -12.74,-0.4 -4.52,0.47 -9.06,0.82 -13.02,0.98 -3.96,0.17 -8.53,0.2 -13.06,0.12 -4.5,0.02 -9.18,-0.23 -12.64,1.48 -3.34,1.61 -4.55,5.86 -0.31,10.85 3.98,4.85 14.11,9.89 27.23,9.37 13.12,-0.6 22.63,-6.46 26.06,-11.64 3.66,-5.31 1.98,-9.44 -1.52,-10.76"
         style="fill:#502d16;fill-opacity:1;fill-rule:nonzero;stroke:none"
         id="path1138" />
      <path
         d="m 5844.24,3265.11 c 0.06,-9.47 7.77,-17.1 17.23,-17.05 5.51,0.03 10,-4.41 10.03,-9.93 l 0.01,-1.53 c 0.07,-12 -9.61,-21.78 -21.61,-21.84 l -16.62,-0.1"
         style="fill:#f9b293;fill-opacity:1;fill-rule:nonzero;stroke:none"
         id="path1140" />
      <path
         d="m 5833.28,3210.91 c -2.06,0 -3.74,1.67 -3.75,3.73 -0.01,2.07 1.66,3.76 3.73,3.77 l 16.62,0.1 c 4.81,0.02 9.31,1.91 12.69,5.33 3.38,3.41 5.22,7.94 5.19,12.74 l -0.01,1.53 c -0.01,1.67 -0.66,3.23 -1.84,4.4 -1.17,1.16 -2.74,1.8 -4.38,1.8 h -0.15 c -11.46,0 -20.82,9.29 -20.89,20.77 -0.01,2.07 1.66,3.76 3.73,3.78 h 0.02 c 2.06,0 3.74,-1.67 3.75,-3.73 0.05,-7.36 6.04,-13.32 13.39,-13.32 h 0.15 c 3.64,0 7.06,-1.4 9.65,-3.97 2.61,-2.58 4.05,-6.02 4.07,-9.69 l 0.01,-1.52 c 0.04,-6.82 -2.57,-13.23 -7.36,-18.07 -4.78,-4.83 -11.17,-7.52 -17.98,-7.55 l -16.62,-0.1 h -0.02"
         style="fill:#f5746c;fill-opacity:1;fill-rule:nonzero;stroke:none"
         id="path1142" />
      <path
         d="m 5812.22,3238.04 c 2.03,-3.71 0.67,-8.36 -3.04,-10.39 -3.71,-2.03 -8.36,-0.67 -10.38,3.04 -2.03,3.7 -0.67,8.35 3.04,10.38 3.7,2.03 8.35,0.67 10.38,-3.03"
         style="fill:#2b2b42;fill-opacity:1;fill-rule:nonzero;stroke:none"
         id="path1144" />
      <path
         d="m 5898.07,3238.04 c 2.03,-3.71 0.66,-8.36 -3.04,-10.39 -3.71,-2.03 -8.36,-0.67 -10.39,3.04 -2.03,3.7 -0.67,8.35 3.04,10.38 3.71,2.03 8.36,0.67 10.39,-3.03"
         style="fill:#2b2b42;fill-opacity:1;fill-rule:nonzero;stroke:none"
         id="path1146" />
      <path
         d="m 5847.11,2957.08 -49.93,-60.88 27.44,-48.83 c 8.55,-15.22 30.5,-15.1 38.9,0.2 l 27.15,49.51 -43.56,60"
         style="fill:#f36454;fill-opacity:1;fill-rule:nonzero;stroke:none"
         id="path1148" />
      <path
         d="m 5816.8,2844 -30.36,-131.69 c -1.39,-6 -0.39,-12.3 2.79,-17.57 l 34.31,-56.99 c 9.33,-15.49 31.86,-15.27 40.88,0.38 l 27.6,47.87 c 2.86,4.95 3.83,10.77 2.74,16.39 l -27.35,140.38 c -1.99,10.25 -10.45,17.99 -20.84,19.06 l -4.21,0.44 c -11.91,1.24 -22.87,-6.6 -25.56,-18.27"
         style="fill:#f36454;fill-opacity:1;fill-rule:nonzero;stroke:none"
         id="path1150" />
      <path
         d="m 5763.37,3032.19 79.34,-67.84 c 4.95,-4.23 5.81,-10.75 2.08,-15.78 l -37.68,-50.96 c -5.97,-8.06 -19.92,-8.08 -25.92,-0.03 l -64.04,85.98 c -3,4.02 -3.47,24.46 -0.67,28.57 l 22.75,17.45 c 5.03,7.37 17.05,8.68 24.14,2.61"
         style="fill:#ffffff;fill-opacity:1;fill-rule:nonzero;stroke:none"
         id="path1152" />
      <path
         d="m 5926.49,3032.19 -79.34,-67.84 c -4.95,-4.23 -5.81,-10.75 -2.08,-15.78 l 37.68,-50.96 c 5.96,-8.06 19.93,-8.08 25.92,-0.03 l 64.04,85.98 c 2.99,4.02 3.49,25.51 0.69,29.62 l -22.77,16.4 c -5.02,7.37 -17.05,8.68 -24.14,2.61"
         style="fill:#ffffff;fill-opacity:1;fill-rule:nonzero;stroke:none"
         id="path1154" />
      <path
         d="m 6012.14,2994.12 c -45.26,-95.43 -239.97,-486.08 -451.19,-611.73 h 153.67 c 0,0 323.26,395.51 353.59,585.04 1.13,7.01 -1.58,14.06 -7.23,18.35 l -20.26,15.34 c -9.59,7.27 -23.43,3.87 -28.58,-7"
         style="fill:#766f72;fill-opacity:1;fill-rule:nonzero;stroke:none"
         id="path1156" />
      <path
         d="m 5611.94,2632.22 1.97,48.84 -167.93,2.96 -39,-104.5 c -1.85,-4.19 -3.6,-8.66 -5.13,-13.78 -15.23,-50.81 -6.38,-110.68 48.19,-132.38 41.19,-16.39 88.17,-6.75 119.59,24.51 l 90.6,175.35 c 0,0 -20.92,-0.07 -48.29,-1"
         style="fill:#f9b293;fill-opacity:1;fill-rule:nonzero;stroke:none"
         id="path1168" />
      <path
         d="m 5558.28,2448.05 c -53.68,14.52 -55.11,105.5 -55.11,105.5 l 9.3,-8.28 3.49,-16.84 c 5.03,-24.27 22.84,-43.56 46.05,-50.78 -1.74,-9.7 -2.99,-19.59 -3.73,-29.6"
         style="fill:#f79985;fill-opacity:1;fill-rule:nonzero;stroke:none"
         id="path1170" />
      <path
         d="m 5459.27,2616.24 153.98,48.48 -1.31,-32.49 -25.65,-2.69 c -0.48,0.15 -0.96,0.31 -1.44,0.46 -6.65,2.15 -13.52,3.22 -20.36,3.22 -11.76,0 -23.4,-3.17 -33.62,-9.48 l -71.6,-7.5"
         style="fill:#f78e7d;fill-opacity:1;fill-rule:nonzero;stroke:none"
         id="path1172" />
      <path
         d="m 6300.86,2565.74 c -1.53,5.12 -3.28,9.59 -5.14,13.78 l -39,104.5 -167.93,-2.96 1.97,-48.84 c -27.36,0.93 -48.29,1 -48.29,1 l 90.61,-175.35 c 31.41,-31.26 78.39,-40.9 119.58,-24.51 54.58,21.7 63.41,81.57 48.2,132.38"
         style="fill:#f9b293;fill-opacity:1;fill-rule:nonzero;stroke:none"
         id="path1174" />
      <path
         d="m 6129.69,2464.42 -0.15,0.17 c 0.02,0 0.05,-0.01 0.07,-0.01 l 0.08,-0.16"
         style="fill:#f78e3a;fill-opacity:1;fill-rule:nonzero;stroke:none"
         id="path1176" />
      <path
         d="m 6144.4,2448.05 -14.71,16.37 -0.08,0.16 c 1.46,-0.29 2.94,-0.43 4.42,-0.43 7.32,0 14.5,3.51 18.91,10.03 l 28.38,42.03 c 5.79,8.58 9.41,18.16 10.85,27.98 l 7.36,9.36 c 0,0 -1.43,-91 -55.13,-105.5"
         style="fill:#f79985;fill-opacity:1;fill-rule:nonzero;stroke:none"
         id="path1178" />
      <path
         d="m 6243.44,2616.24 -86.75,9.08 c -9.27,9.31 -21.2,15.7 -34.27,18.21 l -5.05,0.97 -15.46,2.96 c 0,0 -5.18,0.89 -11.93,4.17 l -0.53,13.09 153.99,-48.48"
         style="fill:#f78e7d;fill-opacity:1;fill-rule:nonzero;stroke:none"
         id="path1180" />
      <path
         d="m 5621.36,2426.79 c 0,123.13 99.82,222.95 222.96,222.95 76.96,0 144.81,-38.99 184.88,-98.29 24.03,-35.59 38.08,-78.49 38.08,-124.66 0,-15.21 -1.54,-30.05 -4.44,-44.4 h 64.85 c 2.25,14.47 3.43,29.29 3.43,44.4 0,158.39 -128.41,286.8 -286.8,286.8 -158.4,0 -286.81,-128.41 -286.81,-286.8 0,-15.11 1.18,-29.93 3.44,-44.4 h 64.84 c -2.9,14.35 -4.43,29.19 -4.43,44.4"
         style="fill:#262628;fill-opacity:1;fill-rule:nonzero;stroke:none"
         id="path1182" />
      <path
         d="m 5850.45,2383.8 -195.87,195.86 28.28,28.28 167.59,-167.58 165.42,165.41 28.28,-28.28 -193.7,-193.69"
         style="fill:#262628;fill-opacity:1;fill-rule:nonzero;stroke:none"
         id="path1184" />
      <path
         d="m 5930.78,2461.45 c -18.74,27.73 -50.47,45.97 -86.46,45.97 -57.59,0 -104.27,-46.68 -104.27,-104.27 0,-7.11 0.71,-14.05 2.07,-20.76 h 204.39 c 1.36,6.71 2.07,13.65 2.07,20.76 0,21.6 -6.56,41.65 -17.8,58.3"
         style="fill:#504d4f;fill-opacity:1;fill-rule:nonzero;stroke:none"
         id="path1186" />
      <path
         d="m 5887.55,2421.91 c -9.37,13.88 -25.24,22.99 -43.23,22.99 -28.79,0 -52.14,-23.34 -52.14,-52.13 0,-3.55 0.36,-7.03 1.04,-10.38 h 102.2 c 0.67,3.35 1.04,6.83 1.04,10.38 0,10.79 -3.29,20.82 -8.91,29.14"
         style="fill:#262628;fill-opacity:1;fill-rule:nonzero;stroke:none"
         id="path1188" />
      <path
         d="m 6101.91,2647.46 c 0,0 -24.34,4.18 -36.14,27.74 -11.81,23.57 -44.04,-12.99 -19.52,-40.82 24.52,-27.82 21.37,-33.74 21.37,-33.74 0,0 1.89,-10.13 -23.32,-32.08 -13.05,-11.35 -23.55,-25.81 -30.66,-37.12 -6.24,-9.94 -3.42,-23.03 6.32,-29.6 7.85,-5.3 18.53,-3.24 23.83,4.62 l 9.28,13.74 -12.42,-18.37 c -5.79,-8.59 -3.53,-20.24 5.05,-26.04 l 2.63,-1.78 c 8.42,-5.68 19.85,-3.46 25.55,4.96 l 17.42,25.8 -12.66,-18.74 c -4.77,-7.06 -2.91,-16.66 4.15,-21.43 l 2,-1.35 c 9.58,-6.46 22.58,-3.94 29.05,5.64 l 9.18,13.59 -3.52,-5.21 c -2.05,-3.04 -1.25,-7.16 1.79,-9.21 10.43,-7.05 24.6,-4.31 31.65,6.12 l 28.38,42.03 c 15.63,23.15 15.4,53.55 -0.61,76.46 l -16.69,23.89 c -9.82,14.07 -24.75,23.74 -41.6,26.97 l -5.05,0.97 -15.46,2.96"
         style="fill:#f9b293;fill-opacity:1;fill-rule:nonzero;stroke:none"
         id="path1190" />
      <path
         d="m 6038.02,2495.95 -0.57,0.18 c -1.29,0.96 -1.79,2.6 -1.37,4.06 2.94,1.2 5.57,3.23 7.53,6 l -2.96,-4.36 c -1.24,-1.85 -2.12,-3.84 -2.63,-5.88"
         style="fill:#f8a39a;fill-opacity:1;fill-rule:nonzero;stroke:none"
         id="path1192" />
      <path
         d="m 6039.69,2495.39 -1.67,0.56 c 0.51,2.04 1.39,4.03 2.63,5.88 l 2.96,4.36 c -1.96,-2.77 -4.59,-4.8 -7.53,-6 0.13,0.42 0.32,0.82 0.6,1.19 l 17.62,23.74 c 0.73,0.99 1.85,1.51 3,1.51 0.78,0 1.56,-0.24 2.24,-0.74 1.66,-1.23 2.01,-3.58 0.77,-5.25 l -17.62,-23.73 c -0.73,-0.99 -1.86,-1.52 -3,-1.52"
         style="fill:#f78d7c;fill-opacity:1;fill-rule:nonzero;stroke:none"
         id="path1194" />
      <path
         d="m 6076.29,2480.4 -0.17,0.05 c -0.29,0.21 -0.54,0.45 -0.76,0.72 l 3.13,4.63 c -1.1,-1.7 -1.83,-3.53 -2.2,-5.4"
         style="fill:#9a5450;fill-opacity:1;fill-rule:nonzero;stroke:none"
         id="path1196" />
      <path
         d="m 6078.31,2479.75 -2.02,0.65 c 0.37,1.87 1.1,3.7 2.2,5.4 l -3.13,-4.63 c -1,1.28 -1.1,3.12 -0.1,4.51 l 21.73,30.34 c 0.74,1.03 1.89,1.57 3.05,1.57 0.76,0 1.53,-0.23 2.19,-0.7 1.68,-1.2 2.07,-3.55 0.86,-5.23 l -21.73,-30.35 c -0.73,-1.02 -1.89,-1.56 -3.05,-1.56"
         style="fill:#f78d7c;fill-opacity:1;fill-rule:nonzero;stroke:none"
         id="path1198" />
      <path
         d="m 6116.07,2468.97 -1.77,0.6 8.72,12.91 -3.52,-5.21 c -1.4,-2.08 -1.47,-4.67 -0.4,-6.76 l -0.03,-0.04 c -0.73,-0.98 -1.86,-1.5 -3,-1.5"
         style="fill:#9a5450;fill-opacity:1;fill-rule:nonzero;stroke:none"
         id="path1200" />
      <path
         d="m 6114.3,2469.57 -0.48,0.16 c -1.65,1.24 -1.98,3.59 -0.74,5.25 l 16.68,22.21 c 0.73,0.99 1.86,1.5 2.99,1.5 0.79,0 1.58,-0.25 2.26,-0.75 1.65,-1.24 1.98,-3.6 0.74,-5.25 l -16.65,-22.18 c -1.07,2.09 -1,4.68 0.4,6.76 l 3.52,5.21 -8.72,-12.91"
         style="fill:#f78d7c;fill-opacity:1;fill-rule:nonzero;stroke:none"
         id="path1202" />
      <path
         d="m 5530.22,2623.34 0.46,0.28 c 16.2,10.09 36.01,12.24 54.17,6.38 12.03,-3.88 26.7,-7.78 41.26,-9.54 17.17,-2.07 35.97,-10 49.07,-12.6 11.51,-2.28 19.09,-13.32 17.18,-24.91 -1.53,-9.35 -10.36,-15.69 -19.71,-14.16 l -16.36,2.69 21.87,-3.59 c 10.23,-1.68 17.15,-11.32 15.47,-21.54 l -0.52,-3.13 c -1.65,-10.03 -11.11,-16.82 -21.14,-15.17 l -30.71,5.04 22.31,-3.67 c 8.41,-1.38 14.11,-9.31 12.73,-17.72 l -0.39,-2.37 c -1.87,-11.41 -12.63,-19.14 -24.03,-17.26 l -16.2,2.65 6.2,-1.02 c 3.63,-0.59 6.08,-4.01 5.48,-7.63 -2.04,-12.42 -13.76,-20.84 -26.18,-18.8 l -50.04,8.22 c -27.58,4.53 -49.51,25.57 -55.18,52.94 l -5.91,28.53 c -3.48,16.8 -0.27,34.3 8.95,48.77 l 2.77,4.33 8.45,13.28"
         style="fill:#f9b293;fill-opacity:1;fill-rule:nonzero;stroke:none"
         id="path1204" />
      <path
         d="m 5681.75,2566.93 c -1.14,0.43 -2.34,0.76 -3.59,0.96 l -5.25,0.86 c 0.85,-0.12 1.7,-0.19 2.53,-0.19 2.17,0 4.28,0.42 6.22,1.18 0.26,-0.59 0.37,-1.26 0.29,-1.95 -0.03,-0.3 -0.1,-0.59 -0.2,-0.86"
         style="fill:#9a5450;fill-opacity:1;fill-rule:nonzero;stroke:none"
         id="path1206" />
      <path
         d="m 5678.23,2564.48 -0.44,0.02 -29.35,3.48 c -2.06,0.24 -3.53,2.11 -3.28,4.16 0.23,1.94 1.95,3.3 3.81,3.3 0.12,0 0.23,0 0.35,-0.01 l 29.35,-3.48 c 1.37,-0.16 2.48,-1.04 2.99,-2.21 -1.94,-0.76 -4.05,-1.18 -6.22,-1.18 -0.83,0 -1.68,0.07 -2.53,0.19 l 5.25,-0.86 c 1.25,-0.2 2.45,-0.53 3.59,-0.96 -0.53,-1.46 -1.94,-2.45 -3.52,-2.45"
         style="fill:#f78d7c;fill-opacity:1;fill-rule:nonzero;stroke:none"
         id="path1208" />
      <path
         d="m 5666.75,2528.55 c -1,0.39 -2.07,0.69 -3.18,0.87 l -15.86,2.61 v 0 l 19.11,-3.14 v 0 c -0.02,-0.12 -0.04,-0.23 -0.07,-0.34"
         style="fill:#f8a39a;fill-opacity:1;fill-rule:nonzero;stroke:none"
         id="path1210" />
      <path
         d="m 5647.71,2532.03 -6.45,1.06 6.45,-1.06 v 0"
         style="fill:#9a5450;fill-opacity:1;fill-rule:nonzero;stroke:none"
         id="path1212" />
      <path
         d="m 5663.11,2525.64 -0.51,0.04 -36.99,5.03 c -2.06,0.28 -3.49,2.17 -3.21,4.23 0.25,1.87 1.84,3.24 3.7,3.24 0.17,0 0.34,-0.01 0.52,-0.03 l 36.99,-5.04 c 2.05,-0.28 3.49,-2.16 3.21,-4.22 l -19.11,3.14 -6.45,1.06 6.45,-1.06 15.86,-2.61 c 1.11,-0.18 2.18,-0.48 3.18,-0.87 -0.38,-1.7 -1.9,-2.91 -3.64,-2.91"
         style="fill:#f78d7c;fill-opacity:1;fill-rule:nonzero;stroke:none"
         id="path1214" />
      <path
         d="m 5646.22,2491 c -0.99,1.39 -2.51,2.4 -4.34,2.7 l -6.2,1.02 12.56,-2.06 c -0.45,-0.78 -1.17,-1.37 -2.02,-1.66"
         style="fill:#f8a39a;fill-opacity:1;fill-rule:nonzero;stroke:none"
         id="path1216" />
      <path
         d="m 5645,2490.79 -0.42,0.02 -27.61,3.13 c -2.06,0.23 -3.53,2.09 -3.31,4.15 0.22,1.93 1.99,3.32 3.8,3.32 0.12,0 0.24,-0.01 0.35,-0.02 l 27.61,-3.12 c 2.06,-0.24 3.54,-2.09 3.31,-4.15 -0.06,-0.53 -0.23,-1.02 -0.49,-1.46 l -12.56,2.06 6.2,-1.02 c 1.83,-0.3 3.35,-1.31 4.34,-2.7 -0.38,-0.14 -0.79,-0.21 -1.22,-0.21"
         style="fill:#f78d7c;fill-opacity:1;fill-rule:nonzero;stroke:none"
         id="path1218" />
      <path
         d="m 6111.29,3173.51 h 52.46 c 4.05,0 7.29,-3.35 7.15,-7.39 l -2.12,-62.88 c -0.22,-6.37 7.37,-9.82 12.03,-5.47 l 79.02,73.82 c 1.33,1.23 3.08,1.92 4.89,1.92 h 110.87 c 8.64,0 15.65,7.01 15.65,15.66 v 264.3 c 0,8.64 -7.01,15.66 -15.65,15.66 h -264.3 c -8.65,0 -15.66,-7.02 -15.66,-15.66 v -264.3 c 0,-8.65 7.01,-15.66 15.66,-15.66"
         style="fill:#4d8ed2;fill-opacity:1;fill-rule:nonzero;stroke:none"
         id="path1220" />
      <path
         d="m 6248.12,3400.23 c -3.89,0 -7.25,-2.09 -8.98,-5.58 l -13.95,-28.29 c -2.56,-5.17 -7.49,-8.75 -13.19,-9.57 l -31.21,-4.54 c -3.86,-0.56 -6.87,-3.11 -8.08,-6.82 -1.21,-3.7 -0.26,-7.54 2.53,-10.26 l 22.58,-22.01 c 4.13,-4.03 6.02,-9.83 5.05,-15.5 l -5.34,-31.09 c -0.65,-3.84 0.83,-7.5 3.98,-9.79 3.14,-2.29 7.08,-2.58 10.54,-0.76 l 27.92,14.67 c 5.11,2.69 11.21,2.69 16.3,0 l 27.92,-14.67 c 3.46,-1.82 7.38,-1.53 10.54,0.76 3.15,2.29 4.65,5.95 3.98,9.79 l -5.32,31.09 c -0.99,5.67 0.9,11.47 5.03,15.5 l 22.59,22.01 c 2.79,2.72 3.74,6.56 2.53,10.27 -1.21,3.71 -4.22,6.25 -8.08,6.81 l -31.21,4.54 c -5.71,0.82 -10.65,4.41 -13.19,9.58 l -13.96,28.28 c -1.73,3.49 -5.09,5.58 -8.98,5.58 z m -40.75,-152.88 c -3.61,0 -7.2,1.13 -10.27,3.36 -5.43,3.95 -8.1,10.52 -6.95,17.13 l 5.33,31.09 c 0.55,3.24 -0.53,6.55 -2.89,8.86 l -22.58,22.01 c -4.81,4.69 -6.51,11.56 -4.43,17.95 2.07,6.39 7.49,10.96 14.14,11.92 l 31.21,4.54 c 3.25,0.47 6.07,2.52 7.54,5.48 l 13.95,28.28 c 2.97,6.02 8.99,9.76 15.7,9.76 6.71,0 12.73,-3.74 15.7,-9.76 l 13.96,-28.29 c 1.46,-2.95 4.28,-5 7.54,-5.47 l 31.21,-4.54 c 6.64,-0.96 12.06,-5.53 14.14,-11.91 2.07,-6.39 0.37,-13.27 -4.43,-17.96 l -22.59,-22.01 c -2.36,-2.31 -3.44,-5.62 -2.88,-8.86 l 5.33,-31.09 c 1.14,-6.62 -1.53,-13.18 -6.96,-17.13 -5.45,-3.94 -12.5,-4.45 -18.45,-1.33 l -27.92,14.67 c -2.9,1.54 -6.38,1.54 -9.3,0.01 l -27.92,-14.68 c -2.59,-1.36 -5.39,-2.03 -8.18,-2.03"
         style="fill:#ffffff;fill-opacity:1;fill-rule:nonzero;stroke:none"
         id="path1222" />
      <path
         d="m 6447.09,3078.46 h -117.82 c -18.17,0 -32.89,14.72 -32.89,32.88 v 117.83 c 0,18.16 14.72,32.89 32.89,32.89 h 117.82 c 18.16,0 32.89,-14.73 32.89,-32.89 v -117.83 c 0,-18.16 -14.73,-32.88 -32.89,-32.88"
         style="fill:#f36454;fill-opacity:1;fill-rule:nonzero;stroke:none"
         id="path1224" />
      <path
         d="m 6388.18,3206.05 c -19.74,0 -35.8,-16.06 -35.8,-35.8 0,-19.73 16.06,-35.79 35.8,-35.79 19.74,0 35.79,16.06 35.79,35.79 0,19.74 -16.05,35.8 -35.79,35.8 z m 0,-78.89 c -23.76,0 -43.09,19.33 -43.09,43.09 0,23.77 19.33,43.1 43.09,43.1 23.76,0 43.1,-19.33 43.1,-43.1 0,-23.76 -19.34,-43.09 -43.1,-43.09"
         style="fill:#ffffff;fill-opacity:1;fill-rule:nonzero;stroke:none"
         id="path1226" />
      <path
         d="m 6385.14,3165.53 -0.02,-0.03 z m 2.07,-6.45 c -1.17,0 -2.28,0.47 -3.1,1.3 l -17.03,17.02 c -1.43,1.43 -1.43,3.74 0,5.16 1.43,1.43 3.73,1.43 5.16,0 l 14.97,-14.96 54.43,54.43 c 1.43,1.42 3.73,1.42 5.16,0 1.42,-1.43 1.42,-3.74 0,-5.16 l -57.58,-57.58 -2.01,-0.21"
         style="fill:#ffffff;fill-opacity:1;fill-rule:nonzero;stroke:none"
         id="path1228" />
      <path
         d="m 5352.86,3012.13 h 59.91 c 9.24,0 16.72,7.52 16.72,16.81 v 60.22 c 0,9.28 -7.48,16.8 -16.72,16.8 h -59.91 c -9.24,0 -16.72,-7.52 -16.72,-16.8 v -60.22 c 0,-9.29 7.48,-16.81 16.72,-16.81"
         style="fill:#4d8ed2;fill-opacity:1;fill-rule:nonzero;stroke:none"
         id="path1230" />
      <path
         d="m 5403.58,3058.18 h 77.48 c 11.95,0 21.63,9.73 21.63,21.74 v 77.87 c 0,12 -9.68,21.74 -21.63,21.74 h -77.48 c -11.94,0 -21.62,-9.74 -21.62,-21.74 v -77.87 c 0,-12.01 9.68,-21.74 21.62,-21.74"
         style="fill:#f36454;fill-opacity:1;fill-rule:nonzero;stroke:none"
         id="path1232" />
    </g>
  </g>
</svg>
